Coordinates
version=1
nRows=8
nColumns=36
inDegrees=yes

Units are S.I. units (second, meters, Newtons, ...)
If the header above contains a line with 'inDegrees', this indicates whether rotational values are in degrees (yes) or radians (no).

endheader
time	pelvis_tilt	pelvis_list	pelvis_rotation	pelvis_tx	pelvis_ty	pelvis_tz	hip_flexion_r	hip_adduction_r	hip_rotation_r	knee_angle_r	knee_angle_r_beta	ankle_angle_r	subtalar_angle_r	mtp_angle_r	hip_flexion_l	hip_adduction_l	hip_rotation_l	knee_angle_l	knee_angle_l_beta	ankle_angle_l	subtalar_angle_l	mtp_angle_l	lumbar_extension	lumbar_bending	lumbar_rotation	arm_flex_r	arm_add_r	arm_rot_r	elbow_flex_r	pro_sup_r	arm_flex_l	arm_add_l	arm_rot_l	elbow_flex_l	pro_sup_l
      0.85000000	    -10.81637079	      3.19995130	      5.91017821	     -0.53167883	      1.05926621	     -0.55947492	     35.30139002	     -5.59464371	     -2.58256785	     24.21211913	      0.42258120	      1.77239767	    -15.10757696	     -7.57450627	     36.13656843	     -0.57849677	     -9.52778746	     41.18515010	      0.71881647	      2.59402750	      8.95701762	     -7.57450627	    -19.75886901	     -3.49082954	    -10.26059372	    -80.24504984	    -32.13281123	    -71.92136894	     89.22109953	    104.05627625	    -78.41720217	    -63.42896598	    -69.08909125	    144.83814770	    104.94483535
      0.86000000	    -11.04473646	      3.40189433	      6.24697728	     -0.52028948	      1.04229452	     -0.55760217	     35.29343512	     -5.79697313	     -2.91188676	     22.89939930	      0.39966991	      3.71423437	    -13.79091928	     -7.56819603	     37.34936661	     -0.27838231	     -9.55741530	     40.12836650	      0.70037212	      2.91496972	      9.22909567	     -7.56819603	    -20.04673981	     -3.89491194	    -12.34564798	    -80.13947958	    -31.40571987	    -70.90585939	     88.20977794	    103.79746173	    -80.57641824	    -56.12139785	    -68.68230264	    145.54944519	    105.50251708
      0.87000000	    -11.15614380	      3.56712388	      6.58317034	     -0.50897356	      1.02467562	     -0.55588253	     35.10301080	     -5.91017112	     -2.84960190	     21.44582756	      0.37430030	      5.10570618	    -13.04332250	     -7.56530740	     38.46312262	      0.00536855	     -9.41972860	     39.23820903	      0.68483594	      3.36630774	      9.36384536	     -7.56530740	    -20.32766599	     -4.10181484	    -13.58930881	    -80.17067227	    -29.50414479	    -70.47603056	     87.78123057	    103.63532640	    -80.69126563	    -50.66013550	    -66.50374096	    145.40152681	    105.71942474
      0.88000000	    -11.08841239	      3.75118840	      6.84433797	     -0.49773116	      1.00648757	     -0.55394262	     34.78785092	     -5.97311226	     -2.40142467	     20.12636028	      0.35127125	      6.39964302	    -12.58156614	     -7.56350732	     39.39009233	      0.21277293	     -9.30092666	     38.51073315	      0.67213909	      3.84265475	      9.61900188	     -7.56350732	    -20.81142411	     -4.31928311	    -14.57619733	    -79.72277907	    -27.28463546	    -70.17902278	     87.70784752	    103.45632824	    -80.21039025	    -45.82556877	    -64.21929020	    144.82168806	    105.71524090
      0.89000000	    -10.92173009	      3.87808151	      7.16561178	     -0.48650291	      0.98757189	     -0.55226222	     34.43554655	     -6.10361190	     -2.05108515	     19.01065870	      0.33179859	      7.25978615	    -12.24951438	     -7.56156811	     40.29306552	      0.39948548	     -9.00904552	     38.08488113	      0.66470657	      4.39140977	     10.12019080	     -7.56156811	    -21.41513128	     -4.43967726	    -15.71633575	    -78.91128001	    -25.40366173	    -69.68196961	     87.86157309	    103.32037796	    -79.28737717	    -41.03605008	    -61.81913042	    144.06828590	    105.67218177
      0.90000000	    -10.69919159	      4.02205864	      7.49061615	     -0.47545394	      0.96782056	     -0.55060332	     34.15635182	     -6.27817104	     -1.49238479	     18.23470052	      0.31825556	      7.37393376	    -12.71460899	     -7.55788972	     41.23798908	      0.60559412	     -8.53899388	     38.01891552	      0.66355525	      5.06847786	     10.84483002	     -7.55788972	    -22.14816386	     -4.65422737	    -16.96663060	    -77.56549658	    -23.91614564	    -68.76713665	     87.88787516	    103.53371595	    -78.27056687	    -36.35009825	    -60.01777003	    143.14926633	    105.72985867
      0.91000000	    -10.47407378	      4.15984501	      7.77549679	     -0.46472181	      0.94713394	     -0.54900426	     34.13315608	     -6.47076494	     -0.60908385	     18.11605099	      0.31618474	      8.00961489	    -13.06369421	     -7.55560853	     42.29628333	      0.84071542	     -7.84156927	     38.29067497	      0.66829835	      5.31983620	     11.03303423	     -7.55560853	    -22.87529614	     -4.74163413	    -17.70871186	    -76.04183578	    -21.90115284	    -68.01756832	     88.14161378	    103.02144004	    -76.47227162	    -32.82493272	    -57.83491394	    141.88500141	    105.11777427
      0.92000000	    -10.26887837	      4.25265472	      8.05032866	     -0.45425350	      0.92536795	     -0.54750632	     34.35913344	     -6.68313374	      0.75347522	     18.57556802	      0.32420482	      8.86894999	    -13.27949698	     -7.55323697	     43.55868533	      1.01703555	     -7.05634666	     39.07341175	      0.68195969	      5.49103639	     11.45758062	     -7.55323697	    -23.58682996	     -4.75974104	    -18.38739191	    -74.18526114	    -20.06314393	    -67.05062220	     88.45718741	    102.42136983	    -74.43467080	    -29.67948780	    -55.64107866	    140.61105686	    104.39777105
